{"title":"Lahore (2010) 1 CD Hindi DVDRip ENG Subs XviD AC3","uid":5542091,"size":630474098,"categoryP":"video","categoryS":"movies","magnet":"?xt=urn:btih:c65779b6f713c52096abbfa82b16a6179f0c9836&amp;dn=Lahore+%282010%29+1+CD+Hindi+DVDRip+ENG+Subs+XviD+AC3&amp;tr=udp%3A%2F%2Ftracker.openbittorrent.com%3A80&amp;tr=udp%3A%2F%2Fopen.demonii.com%3A1337&amp;tr=udp%3A%2F%2Ftracker.coppersurfer.tk%3A6969&amp;tr=udp%3A%2F%2Fexodus.desync.com%3A6969","seeders":0,"leechers":1,"uploader":"amanrulz","files":1,"time":1273266017,"description":"\n\nInfo: -\nFormat : AVI\nFormat/Info : Audio Video Interleave\nFormat profile : OpenDML\nFile size : 601 MiB\nDuration : 2h 16mn\nOverall bit rate : 618 Kbps\nWriting application : AVI-Mux GUI 1.17.8.3, Feb 16 201019:42:50\n\nVideo\nID : 0\nFormat : MPEG-4 Visual\nFormat profile : Advanced Simple@L5\nFormat settings, BVOP : Yes\nFormat settings, QPel : No\nFormat settings, GMC : No warppoints\nFormat settings, Matrix : Default (H.263)\nCodec ID : XVID\nCodec ID/Hint : XviD\nDuration : 2h 16mn\nBit rate : 520 Kbps\nWidth : 688 pixels\nHeight : 288 pixels\nDisplay aspect ratio : 2.35:1\nFrame rate : 23.976 fps\nResolution : 8 bits\nColorimetry : 4:2:0\nScan type : Progressive\nBits/(Pixel*Frame) : 0.110\nStream size : 507 MiB (84%)\nWriting library : XviD 1.2.1 (UTC 2008-12-04)\n\nAudio\nID : 1\nFormat : MPEG Audio\nFormat version : Version 1\nFormat profile : Layer 3\nMode : Joint stereo\nFormat_Settings_ModeExtension : MS Stereo\nCodec ID : 55\nCodec ID/Hint : MP3\nDuration : 2h 16mn\nBit rate mode : Variable\nBit rate : 90.4 Kbps\nNominal bit rate : 96.0 Kbps\nChannel(s) : 2 channels\nSampling rate : 32.0 KHz\nStream size : 88.1 MiB (15%)\nAlignment : Aligned on interleaves\nInterleave, duration : 36 ms (0.86 video frame)\nInterleave, preload duration : 194 ms\nTitle : VTS_08_1 T81 2_0ch 128Kbps DELAY 0ms_new\nWriting library : LAME3.98r\nEncoding settings : -m j -V 4 -q 2 -lowpass 15.1 --abr 96","torrent":{"xt":"urn:btih:c65779b6f713c52096abbfa82b16a6179f0c9836","amp;dn":"Lahore+%282010%29+1+CD+Hindi+DVDRip+ENG+Subs+XviD+AC3","amp;tr":["udp%3A%2F%2Ftracker.openbittorrent.com%3A80","udp%3A%2F%2Fopen.demonii.com%3A1337","udp%3A%2F%2Ftracker.coppersurfer.tk%3A6969","udp%3A%2F%2Fexodus.desync.com%3A6969"],"infoHash":"c65779b6f713c52096abbfa82b16a6179f0c9836","infoHashBuffer":{"type":"Buffer","data":[198,87,121,182,247,19,197,32,150,171,191,168,43,22,166,23,159,12,152,54]},"announce":[],"urlList":[]}}